<svg width="71" height="64" viewBox="0 0 71 64" fill="none" xmlns="http://www.w3.org/2000/svg">
    <g id="Layer_1" clip-path="url(#clip0_182_1308)">
        <path id="Vector" d="M46.5105 21.1392C46.5105 15.6316 51.993 11.1638 58.7495 11.1638C65.506 11.1638 70.9886 15.6316 70.9886 21.1392C70.9886 26.6468 65.506 31.1145 58.7495 31.1145C58.2718 31.1145 57.8054 31.0917 57.3505 31.046C56.4974 32.3143 54.5864 33.7883 51.902 34.3825C52.7893 33.1485 53.4831 31.7659 53.9495 30.3147C49.5703 28.795 46.5105 25.2527 46.5105 21.1392Z" fill="#FFED55"/>
        <g id="Group">
            <path id="Vector_2" d="M62.9353 21.0019C62.9581 20.8876 63.0263 20.739 63.0832 20.6362C63.0377 20.739 62.9922 20.8419 62.9581 20.9447C62.9581 20.9447 62.9581 20.9333 62.9581 20.9219V21.596C62.9581 21.596 62.9581 21.5732 62.9581 21.5618C63.0036 21.6646 63.0377 21.756 63.0832 21.8588C63.0832 21.8588 63.0832 21.836 63.0718 21.836C62.833 21.4018 62.8671 20.8647 63.1628 20.4648C63.4699 20.0649 63.959 19.9049 64.4481 20.0192C64.5619 20.042 64.687 20.1106 64.8008 20.1677C64.6984 20.122 64.596 20.0877 64.505 20.042C64.96 20.1906 65.3354 20.5105 65.4605 21.0019C65.6766 21.8246 65.051 22.6701 64.1979 22.6701C63.868 22.6701 63.5154 22.5216 63.2766 22.2816C62.9353 21.9388 62.833 21.4703 62.9353 21.0019Z" fill="white"/>
            <path id="Vector_3" d="M57.4302 20.8991C57.453 20.7848 57.5212 20.6363 57.5781 20.5334C57.5326 20.6363 57.4871 20.7391 57.453 20.8419C57.453 20.8419 57.453 20.8305 57.453 20.8191V21.4933C57.453 21.4933 57.453 21.4704 57.453 21.459C57.4984 21.5618 57.5326 21.6532 57.5781 21.7561C57.5781 21.7561 57.5781 21.7332 57.5667 21.7332C57.3278 21.299 57.362 20.762 57.6577 20.362C57.9648 19.9621 58.4539 19.8021 58.943 19.9164C59.0568 19.9392 59.1819 20.0078 59.2956 20.0649C59.1933 20.0192 59.0909 19.985 58.9999 19.9392C59.4549 20.0878 59.8302 20.4077 59.9554 20.8991C60.1715 21.7218 59.5459 22.5674 58.6928 22.5674C58.3629 22.5674 58.0103 22.4188 57.7714 22.1788C57.4302 21.8361 57.3278 21.3676 57.4302 20.8991Z" fill="white"/>
            <path id="Vector_4" d="M51.9248 20.7848C51.9476 20.6706 52.0158 20.522 52.0727 20.4192L51.9476 20.7277C51.9476 20.7277 51.9476 20.7163 51.9476 20.7048V21.379C51.9476 21.379 51.9476 21.3561 51.9476 21.3447C51.9931 21.4476 52.0272 21.539 52.0727 21.6418C52.0727 21.6418 52.0727 21.619 52.0613 21.619C51.8225 21.1847 51.8566 20.6477 52.1523 20.2478C52.4594 19.8478 52.9485 19.6879 53.4376 19.8021C53.5514 19.825 53.6765 19.8935 53.7903 19.9507C53.6879 19.905 53.5855 19.8707 53.4945 19.825C53.9495 19.9735 54.3249 20.2935 54.45 20.7848C54.6661 21.6075 54.0405 22.4531 53.1874 22.4531C52.8575 22.4531 52.5049 22.3045 52.2661 22.0646C51.9248 21.7218 51.8225 21.2533 51.9248 20.7848Z" fill="white"/>
        </g>
        <path id="Vector_5" d="M30.5407 0H18.4837C16.5614 0 14.9917 1.56543 14.9917 3.50795V13.3119C14.9917 15.243 16.55 16.8199 18.4837 16.8199H21.3956L24.5122 19.9507L27.6288 16.8199H30.5407C32.463 16.8199 34.0327 15.2544 34.0327 13.3119V3.50795C34.0327 1.57686 32.4744 0 30.5407 0Z" fill="white"/>
        <path id="Vector_6" d="M27.1056 5.87327C27.1056 7.32444 25.9341 8.48994 24.5009 8.48994C23.0677 8.48994 21.8961 7.31301 21.8961 5.87327C21.8961 4.43352 23.0677 3.25659 24.5009 3.25659C25.9341 3.25659 27.1056 4.43352 27.1056 5.87327ZM24.5009 9.14126C22.226 9.14126 20.2923 10.8324 19.5757 13.1862H29.4261C28.7095 10.8324 26.7758 9.14126 24.5009 9.14126Z" fill="#FFED55"/>
        <path id="Vector_7" d="M16.1064 40.7126L35.2271 60.0349L54.3477 40.7126L35.2271 24.4641L16.1064 40.7126Z" fill="#8C8C8C"/>
        <path id="Vector_8" d="M47.7618 39.0789H22.6809V61.1663H47.7618V39.0789Z" fill="white"/>
        <path id="Vector_9" d="M35.2271 56.9612L16.1064 40.7126V63.9999H54.3477V40.7126L35.2271 56.9612Z" fill="#FFED55"/>
        <path id="Vector_10" d="M15.549 19.9392H3.49199C1.56969 19.9392 0 21.5046 0 23.4472V33.2511C0 35.1822 1.55831 36.7591 3.49199 36.7591H6.40388L9.52051 39.8899L12.6371 36.7591H15.549C17.4713 36.7591 19.041 35.1936 19.041 33.2511V23.4472C19.041 21.5161 17.4827 19.9392 15.549 19.9392Z" fill="white"/>
        <path id="Vector_11" d="M9.52042 26.1325C9.5773 26.0297 9.63417 25.9383 9.69104 25.8583C10.0778 25.2984 10.5896 24.9327 11.2721 24.8413C12.0001 24.7385 12.6257 24.967 13.1489 25.4812C13.5925 25.9269 13.8086 26.4639 13.82 27.0924C13.82 27.6865 13.6608 28.235 13.3878 28.7606C13.1034 29.3205 12.7053 29.789 12.2617 30.2347C11.4882 30.9888 10.6579 31.6858 9.82754 32.3714C9.73654 32.44 9.65692 32.5085 9.56592 32.5771C9.5318 32.6114 9.50905 32.6114 9.47493 32.5771C8.71283 31.9601 7.96211 31.3316 7.24551 30.6689C6.8929 30.3375 6.54029 30.0061 6.23318 29.629C5.75544 29.0463 5.40283 28.395 5.26634 27.6408C5.15259 27.0124 5.22084 26.4068 5.58483 25.8583C5.93744 25.3327 6.41517 24.9899 7.0294 24.8528C7.99623 24.6471 8.91757 25.1384 9.40668 25.9383C9.4408 25.9954 9.47493 26.064 9.52042 26.1325Z" fill="#FFED55"/>
    </g>
    <defs>
        <clipPath id="clip0_182_1308">
            <rect width="71" height="64" fill="white"/>
        </clipPath>
    </defs>
</svg>
