<svg width="66" height="61" viewBox="0 0 66 61" fill="none" xmlns="http://www.w3.org/2000/svg"> <g clip-path="url(#clip0_182_1274)"> <path d="M0.22813 2.19728L0.0044567 50.1707C-0.00124071 51.3927 0.974244 52.388 2.18326 52.3937L37.4001 52.5615C38.6091 52.5672 39.5938 51.5813 39.5995 50.3593L39.8232 2.38587C39.8289 1.1639 38.8534 0.168616 37.6444 0.162857L2.42757 -0.00487788C1.21855 -0.0106364 0.233828 0.975308 0.22813 2.19728Z" fill="#FFED55"/> <path d="M37.0449 2.88776L2.99561 2.72559L2.77664 49.6892L36.8259 49.8513L37.0449 2.88776Z" fill="#FEFEFE"/> <path d="M6.98073 11.6186L6.98067 11.6299C6.97921 11.9433 7.22934 12.1985 7.53934 12.1999L15.4651 12.2377C15.7751 12.2392 16.0276 11.9864 16.0291 11.673L16.0291 11.6617C16.0306 11.3484 15.7804 11.0932 15.4704 11.0917L7.54468 11.0539C7.23468 11.0525 6.98219 11.3053 6.98073 11.6186Z" fill="#8C8C8C"/> <path d="M6.95338 16.4804L6.95333 16.4918C6.95187 16.8051 7.20199 17.0603 7.512 17.0618L32.4006 17.1803C32.7107 17.1818 32.9631 16.929 32.9646 16.6156L32.9647 16.6043C32.9661 16.291 32.716 16.0358 32.406 16.0343L7.51734 15.9157C7.20734 15.9143 6.95484 16.1671 6.95338 16.4804Z" fill="#8C8C8C"/> <path d="M6.93068 21.3486L6.93062 21.3599C6.92916 21.6732 7.17929 21.9284 7.48929 21.9299L32.3779 22.0485C32.6879 22.0499 32.9404 21.7971 32.9419 21.4838L32.942 21.4725C32.9434 21.1591 32.6933 20.9039 32.3833 20.9025L7.49464 20.7839C7.18463 20.7824 6.93214 21.0352 6.93068 21.3486Z" fill="#8C8C8C"/> <path d="M6.90822 26.2165L6.90816 26.2278C6.9067 26.5412 7.15683 26.7964 7.46683 26.7978L32.3555 26.9164C32.6655 26.9179 32.918 26.6651 32.9194 26.3517L32.9195 26.3404C32.921 26.0271 32.6708 25.7719 32.3608 25.7704L7.47217 25.6518C7.16217 25.6504 6.90968 25.9032 6.90822 26.2165Z" fill="#8C8C8C"/> <path d="M6.89674 31.0844L6.89669 31.0958C6.89523 31.4091 7.14535 31.6643 7.45536 31.6658L32.344 31.7843C32.654 31.7858 32.9065 31.533 32.908 31.2196L32.908 31.2083C32.9095 30.895 32.6594 30.6398 32.3494 30.6383L7.4607 30.5198C7.1507 30.5183 6.8982 30.7711 6.89674 31.0844Z" fill="#8C8C8C"/> <path d="M6.86305 35.9411L6.863 35.9524C6.86154 36.2658 7.11166 36.521 7.42167 36.5224L32.3103 36.641C32.6203 36.6425 32.8728 36.3897 32.8743 36.0763L32.8743 36.065C32.8758 35.7517 32.6257 35.4965 32.3157 35.495L7.42701 35.3764C7.117 35.375 6.86451 35.6278 6.86305 35.9411Z" fill="#8C8C8C"/> <path d="M6.84034 40.809L6.84029 40.8204C6.83883 41.1337 7.08896 41.3889 7.39896 41.3904L32.2876 41.5089C32.5976 41.5104 32.8501 41.2576 32.8516 40.9443L32.8516 40.9329C32.8531 40.6196 32.603 40.3644 32.293 40.3629L7.4043 40.2444C7.0943 40.2429 6.84181 40.4957 6.84034 40.809Z" fill="#8C8C8C"/> <path d="M59.309 44.1387H45.9159C45.0045 44.1387 44.2656 44.8854 44.2656 45.8066V59.3433C44.2656 60.2645 45.0045 61.0113 45.9159 61.0113H59.309C60.2204 61.0113 60.9593 60.2645 60.9593 59.3433V45.8066C60.9593 44.8854 60.2204 44.1387 59.309 44.1387Z" fill="#FFED55"/> <path d="M59.2418 45.8748H45.9834V59.2752H59.2418V45.8748Z" fill="#FEFEFE"/> <path d="M51.6863 55.8939C51.5403 55.8939 51.3944 55.8258 51.3046 55.7124L48.6215 52.558C48.4419 52.3424 48.4643 52.0247 48.6776 51.8431C48.8909 51.6616 49.2053 51.6843 49.3849 51.8999L51.6751 54.589L55.8176 49.4263C55.9972 49.2107 56.3116 49.1766 56.5249 49.3468C56.7382 49.5284 56.7718 49.8461 56.6035 50.0617L52.0792 55.701C51.9894 55.8145 51.8435 55.8939 51.6975 55.8939H51.6863Z" fill="#8C8C8C"/> <path d="M65.065 8.3213L58.3706 5.24634L47.4321 29.5735L54.1265 32.6485L65.065 8.3213Z" fill="#FFED55"/> <path d="M64.9224 4.17565L61.5545 2.6325C60.6339 2.21267 59.5562 2.62115 59.1408 3.55158L58.3774 5.25359L65.0684 8.32855L65.8318 6.62654C66.2471 5.69611 65.843 4.60683 64.9224 4.187V4.17565Z" fill="#FFF7F7"/> <path d="M47.4316 29.5696L47.5664 33.9721L47.6674 37.2173C47.6674 37.535 48.0379 37.6938 48.2848 37.5009L50.7659 35.4472L54.1338 32.6559L47.4429 29.5809L47.4316 29.5696Z" fill="#FFF7F7"/> <path d="M47.5664 33.9722L47.6674 37.2173C47.6674 37.535 48.0379 37.6939 48.2849 37.501L50.7659 35.4472L47.5776 33.9835L47.5664 33.9722Z" fill="#8C8C8C"/> </g> <defs> <clipPath id="clip0_182_1274"> <rect width="66" height="61" fill="white"/> </clipPath> </defs> </svg>
