<svg width="48" height="57" viewBox="0 0 48 57" fill="none" xmlns="http://www.w3.org/2000/svg">
<g id="_3" clip-path="url(#clip0_385_1969)">
<path id="Vector" d="M28.7923 6.64551H7.31084C3.61985 6.64551 0.627716 9.67118 0.627716 13.4035V48.8983C0.627716 52.6306 3.61985 55.6563 7.31084 55.6563H28.7923C32.4833 55.6563 35.4754 52.6306 35.4754 48.8983V13.4035C35.4754 9.67118 32.4833 6.64551 28.7923 6.64551Z" fill="white"/>
<g id="Group">
<path id="Vector_2" d="M34.4312 0.687012H12.9497C9.25874 0.687012 6.2666 3.71268 6.2666 7.44504V42.9398C6.2666 46.6721 9.25874 49.6978 12.9497 49.6978H34.4312C38.1222 49.6978 41.1143 46.6721 41.1143 42.9398V7.44504C41.1143 3.71268 38.1222 0.687012 34.4312 0.687012Z" fill="#FFEC55"/>
<path id="Vector_3" d="M15.7692 9.86621H31.6192" stroke="white" stroke-width="2" stroke-linecap="round" stroke-linejoin="round"/>
<path id="Vector_4" d="M12.1143 18.4946H35.274" stroke="white" stroke-width="2" stroke-linecap="round" stroke-linejoin="round"/>
<path id="Vector_5" d="M12.1143 25.4111H35.274" stroke="white" stroke-width="2" stroke-linecap="round" stroke-linejoin="round"/>
<path id="Vector_6" d="M12.1143 32.335H35.274" stroke="white" stroke-width="2" stroke-linecap="round" stroke-linejoin="round"/>
<path id="Vector_7" d="M12.1143 39.5908H35.274" stroke="white" stroke-width="2" stroke-linecap="round" stroke-linejoin="round"/>
</g>
<g id="Group_2">
<path id="Vector_8" d="M37.1089 51.9077C42.7772 51.9077 47.3723 47.2611 47.3723 41.5293C47.3723 35.7974 42.7772 31.1509 37.1089 31.1509C31.4406 31.1509 26.8456 35.7974 26.8456 41.5293C26.8456 47.2611 31.4406 51.9077 37.1089 51.9077Z" fill="#4C4C4C"/>
<path id="Vector_9" d="M31.03 40.9939L35.9379 45.8965L43.1879 37.1548" stroke="white" stroke-width="2" stroke-linecap="round" stroke-linejoin="round"/>
</g>
</g>
<defs>
<clipPath id="clip0_385_1969">
<rect width="46.7446" height="56.2666" fill="white" transform="translate(0.627716 0.687012)"/>
</clipPath>
</defs>
</svg>
