<svg width="12" height="12" viewBox="0 0 12 12" fill="none" xmlns="http://www.w3.org/2000/svg">
<path d="M11.6594 10.4655C11.8179 10.624 11.907 10.839 11.907 11.0631C11.907 11.2873 11.8179 11.5023 11.6594 11.6608C11.5009 11.8193 11.2859 11.9084 11.0618 11.9084C10.8376 11.9084 10.6226 11.8193 10.4641 11.6608L5.99997 7.19525L1.53442 11.6594C1.37591 11.8179 1.16093 11.907 0.936766 11.907C0.712602 11.907 0.497618 11.8179 0.33911 11.6594C0.180602 11.5009 0.0915527 11.2859 0.0915527 11.0617C0.0915527 10.8376 0.180602 10.6226 0.33911 10.4641L4.80466 5.99994L0.340516 1.53439C0.182008 1.37588 0.092959 1.1609 0.092959 0.936737C0.092959 0.712572 0.182008 0.497589 0.340516 0.339081C0.499024 0.180572 0.714008 0.0915233 0.938172 0.0915233C1.16234 0.0915233 1.37732 0.180572 1.53583 0.339081L5.99997 4.80463L10.4655 0.338377C10.624 0.179869 10.839 0.0908203 11.0632 0.0908203C11.2873 0.0908203 11.5023 0.179869 11.6608 0.338377C11.8193 0.496886 11.9084 0.711869 11.9084 0.936034C11.9084 1.1602 11.8193 1.37518 11.6608 1.53369L7.19528 5.99994L11.6594 10.4655Z" fill="white"/>
</svg>
