<svg width="115" height="35" viewBox="0 0 115 35" fill="none"
  xmlns="http://www.w3.org/2000/svg">
  <path d="M30.2944 0.218628V8.16122L26.8998 8.51107C26.8998 8.56027 26.8944 8.604 26.8889 8.6532V16.4919L30.2944 16.1421V34.4106L37.9637 32.8472V0.218628H30.2944Z" fill="currentcolor"/>
  <path d="M41.3638 32.727V26.1182L77.6658 23.9645V32.727H41.3638ZM44.2992 21.8545V0.415466H74.7358V7.41785H52.3566V14.0704L74.7358 12.5835V20.0943L44.2992 21.8545Z" fill="currentcolor"/>
  <path d="M106.189 18.6074V18.3341L80.5627 20.7229V8.12296L94.3325 7.4178V5.89269H80.5627V0.218628H102.352V11.523L88.5819 12.4632V14.0649L106.183 12.8513V0.218628H114.241V17.782L106.183 18.6019L106.189 18.6074ZM84.3946 33.782V21.6139L114.241 18.7987V33.782H84.3946ZM106.189 25.6481L92.4575 26.8616V27.9549L106.189 26.9764V25.6481Z" fill="currentcolor"/>
  <path d="M26.4626 26.0198C24.6696 25.3037 22.8384 24.6313 20.8705 23.9699C21.8544 21.7451 22.6416 19.1049 23.2702 15.918C23.8879 12.7912 24.5111 8.74615 25.1233 3.90297C25.2709 2.97369 25.4076 2.01161 25.5989 0.470106L25.659 0L18.6621 0.142125L18.6293 0.502904C18.2631 4.26375 17.6399 8.56029 16.8691 12.5999C16.1585 16.3225 15.2948 19.4656 14.3054 21.9474C13.6003 21.7396 13.1028 21.603 12.6273 21.5101C13.163 19.5094 13.5347 17.3447 13.9282 15.0543C14.1141 13.9829 14.3 12.8842 14.5131 11.7526C15.2128 8.04099 15.7595 4.28561 16.1366 0.590365L16.1804 0.136659L9.13426 0.185856L9.11239 0.5685C8.99213 2.67304 8.59856 5.36795 8.21591 7.97539C8.05739 9.05226 7.90433 10.1237 7.76221 11.1568C7.29757 14.6061 6.68534 17.9351 5.93645 21.0454C4.06696 21.3242 2.61291 21.9911 1.6071 23.0297C0.541168 24.1339 0 25.5606 0 27.2716C0 28.2774 0.32798 29.2504 0.978475 30.1578C1.61804 31.0488 2.53092 31.7868 3.70618 32.3444C4.87051 32.9019 6.2207 33.1807 7.71301 33.1807C9.29278 33.1807 11.0037 32.8418 12.7967 32.1749C14.2508 31.6119 15.5353 30.852 16.6231 29.9118C18.4489 30.7755 20.3348 31.6884 22.2316 32.6177L22.5541 32.7762L26.9381 26.1947L26.468 26.0089L26.4626 26.0198ZM10.6211 27.1677C9.84488 27.5449 8.89921 27.7417 7.8114 27.7417C7.16638 27.7417 6.61427 27.6761 6.17697 27.5504C5.76699 27.4356 5.64673 27.3044 5.6358 27.2661C5.54287 26.9491 5.60847 26.7359 5.85445 26.5446C6.1551 26.3095 6.62521 26.1947 7.24837 26.1947C7.75127 26.1947 8.29244 26.2931 8.87187 26.4844C9.34745 26.6375 9.93234 26.8616 10.6266 27.1677H10.6211Z" fill="currentcolor"/>
</svg>
