<svg width="68" height="69" viewBox="0 0 68 69" fill="currentcolor"
  xmlns="http://www.w3.org/2000/svg">
  <g clip-path="url(#clip0_74_2085)">
    <path d="M0.620827 39.3729L0.787755 14.2834C0.817973 9.74169 3.99738 5.85097 8.38888 4.9817L32.6487 0.179573C38.4785 -0.974414 43.8884 3.58093 43.8484 9.61013L43.6813 34.6995C43.6511 39.2411 40.4718 43.1319 36.0804 44.0013L11.8204 48.8033C5.99057 49.9573 0.580713 45.402 0.620827 39.3729Z" fill="white" fill-opacity="0.2"/>
    <path d="M12.5068 49.3778L12.6737 24.2884C12.704 19.7467 15.8834 15.856 20.2749 14.9867L44.5348 10.1846C50.3646 9.0306 55.7744 13.5859 55.7342 19.6151L55.5674 44.7046C55.5372 49.2463 52.3577 53.137 47.9662 54.0062L23.7064 58.8084C17.8765 59.9624 12.4667 55.4069 12.5068 49.3778Z" fill="white" fill-opacity="0.5"/>
    <path d="M24.3928 59.3921L24.5599 34.3026C24.59 29.7607 27.7694 25.8702 32.1608 25.0008L56.4207 20.1987C62.2505 19.0447 67.6606 23.6001 67.6204 29.6292L67.4535 54.7187C67.4231 59.2603 64.2438 63.1511 59.8523 64.0205L35.5925 68.8225C29.7626 69.9765 24.3528 65.4212 24.3928 59.3921Z" fill="#FEF068"/>
  </g>
  <defs>
    <clipPath id="clip0_74_2085">
      <rect width="67" height="69" fill="white" transform="translate(0.620605)"/>
    </clipPath>
  </defs>
</svg>
